<?xml version="1.0" standalone="no"?>
<!DOCTYPE svg PUBLIC "-//W3C//DTD SVG 20010904//EN"
 "http://www.w3.org/TR/2001/REC-SVG-20010904/DTD/svg10.dtd">
<svg version="1.0" xmlns="http://www.w3.org/2000/svg"
 width="233.000000pt" height="150.000000pt" viewBox="0 0 233.000000 150.000000"
 preserveAspectRatio="xMidYMid meet">

<g transform="translate(0.000000,150.000000) scale(0.100000,-0.100000)"
fill="#000000" stroke="none">
<path d="M1001 1399 c-289 -27 -545 -115 -697 -238 -372 -302 -59 -708 613
-796 679 -89 1330 201 1263 564 -38 208 -314 384 -705 451 -135 23 -348 32
-474 19z m428 -24 c302 -44 569 -167 676 -313 219 -299 -131 -623 -750 -692
-503 -56 -1035 120 -1166 385 -28 57 -31 72 -27 132 6 119 70 212 202 301 129
86 323 155 526 186 130 19 406 20 539 1z"/>
<path d="M1083 1318 c15 -11 9 -12 -33 -10 -69 5 -233 -15 -322 -39 -76 -20
-275 -114 -318 -150 -16 -13 -1 -8 45 14 86 42 235 90 335 108 44 8 147 13
250 13 l175 0 90 -56 c81 -50 97 -56 160 -61 85 -7 80 -2 -66 73 -127 65 -372
149 -316 108z"/>
<path d="M765 1135 c-128 -39 -216 -77 -300 -130 -71 -44 -70 -44 110 33 241
102 276 110 242 59 l-16 -24 94 -7 c67 -4 568 -32 663 -36 1 0 -5 -14 -13 -31
-23 -44 -9 -50 24 -10 l27 33 102 -21 c56 -11 133 -31 171 -44 87 -29 81 -15
-13 28 -97 45 -180 71 -310 98 -100 20 -140 22 -394 22 -304 0 -288 -3 -267
48 9 22 10 22 -120 -18z"/>
<path d="M1505 940 c-3 -5 3 -18 14 -29 28 -28 70 -11 71 28 0 11 -4 11 -18
-2 -23 -21 -27 -21 -46 -2 -9 9 -17 11 -21 5z"/>
<path d="M505 928 c-2 -7 -6 -61 -7 -121 l-3 -107 28 0 c25 0 27 3 27 45 0 25
3 45 8 45 4 0 15 -20 25 -44 20 -48 41 -63 63 -45 10 8 14 40 14 120 l0 109
-31 0 c-30 0 -31 -1 -27 -40 4 -48 -5 -52 -22 -9 -22 52 -64 78 -75 47z"/>
<path d="M1167 933 c-4 -3 -7 -19 -7 -35 0 -21 5 -28 20 -28 18 0 20 -7 20
-85 l0 -85 30 0 30 0 0 85 c0 78 2 85 20 85 16 0 20 7 20 35 l0 35 -63 0 c-35
0 -67 -3 -70 -7z"/>
<path d="M1320 821 l0 -121 28 0 c26 0 27 2 27 50 0 28 4 49 10 47 6 -1 10
-23 10 -49 -1 -46 0 -48 27 -48 l28 0 0 73 c0 81 -9 97 -53 97 -26 0 -28 3
-25 33 3 28 0 32 -24 35 l-28 3 0 -120z"/>
<path d="M710 848 c-42 -45 -16 -148 38 -148 21 0 25 50 5 63 -16 10 -17 33
-2 43 17 10 29 -16 29 -63 0 -39 2 -43 25 -43 24 0 25 3 25 59 0 44 -5 65 -21
85 -26 33 -70 35 -99 4z"/>
<path d="M873 848 c-11 -13 -19 -41 -21 -84 l-4 -64 31 0 c31 0 31 0 31 55 0
30 5 55 10 55 6 0 10 -25 10 -55 0 -53 1 -55 28 -55 26 0 27 2 27 52 0 32 5
53 13 55 9 3 12 -11 12 -51 0 -53 1 -56 25 -56 24 0 25 2 25 63 0 92 -13 105
-100 105 -55 -1 -73 -5 -87 -20z"/>
<path d="M1496 851 c-29 -32 -32 -91 -6 -123 19 -24 28 -28 76 -28 l54 0 0 59
c0 44 -5 65 -21 85 -25 32 -77 36 -103 7z m64 -71 c0 -13 -5 -18 -15 -14 -8 4
-15 12 -15 20 0 8 7 14 15 14 8 0 15 -9 15 -20z"/>
<path d="M1660 848 c-16 -17 -20 -35 -20 -85 l0 -63 30 0 c30 0 30 1 30 55 0
30 5 55 10 55 6 0 10 -25 10 -55 0 -55 0 -55 31 -55 l31 0 -4 64 c-4 75 -25
106 -69 106 -16 0 -37 -9 -49 -22z"/>
<path d="M1827 858 c-55 -43 -34 -158 30 -158 19 0 23 5 23 29 0 16 -7 34 -15
41 -8 7 -12 16 -9 21 12 20 23 6 30 -36 8 -58 -7 -79 -53 -72 -31 5 -33 4 -33
-22 0 -21 6 -30 23 -35 39 -10 64 -6 91 15 24 19 26 26 26 103 0 69 -3 86 -20
104 -23 24 -67 29 -93 10z"/>
<path d="M780 661 c0 -18 53 -51 80 -51 27 0 80 33 80 51 0 14 -26 11 -40 -6
-7 -8 -25 -15 -40 -15 -15 0 -33 7 -40 15 -14 17 -40 20 -40 6z"/>
<path d="M1450 664 c1 -26 44 -54 82 -54 30 0 68 26 68 47 0 14 -3 14 -25 -1
-13 -9 -36 -16 -50 -16 -14 0 -37 7 -50 16 -14 9 -25 12 -25 8z"/>
<path d="M510 590 c0 -7 225 -10 655 -10 430 0 655 3 655 10 0 7 -225 10 -655
10 -430 0 -655 -3 -655 -10z"/>
<path d="M699 507 c-2 -27 -1 -51 3 -53 5 -3 8 2 8 11 0 9 9 30 21 47 12 16
19 32 15 35 -3 3 -11 -7 -18 -23 l-13 -28 -6 30 c-5 25 -6 22 -10 -19z"/>
<path d="M762 500 c0 -36 2 -47 7 -31 9 35 29 37 34 4 l4 -28 2 28 c1 21 -4
30 -18 34 -11 3 -22 15 -24 27 -2 11 -4 -4 -5 -34z"/>
<path d="M1060 500 c0 -51 12 -64 38 -38 15 15 15 61 0 76 -26 26 -38 13 -38
-38z m35 0 c0 -18 -6 -35 -12 -37 -9 -3 -13 8 -13 37 0 29 4 40 13 38 6 -3 12
-20 12 -38z"/>
<path d="M1222 505 c1 -25 5 -45 10 -45 4 0 8 9 8 20 0 30 18 24 23 -7 4 -26
4 -26 6 5 1 22 -3 32 -14 32 -8 0 -15 9 -15 20 0 11 -4 20 -9 20 -5 0 -9 -20
-9 -45z"/>
<path d="M1334 536 c-11 -29 1 -81 19 -84 13 -3 17 3 16 25 -2 24 -2 24 -6 5
-6 -31 -23 -18 -23 18 0 17 7 33 18 39 16 10 16 10 -1 11 -10 0 -20 -6 -23
-14z"/>
<path d="M1540 505 c0 -25 4 -45 9 -45 5 0 11 20 13 45 2 31 -1 45 -9 45 -9 0
-13 -16 -13 -45z"/>
<path d="M830 500 c-13 -25 -3 -50 21 -50 14 0 19 7 19 29 0 35 -25 48 -40 21z
m30 -20 c0 -11 -4 -20 -9 -20 -14 0 -23 18 -16 30 10 17 25 11 25 -10z"/>
<path d="M891 478 c2 -30 2 -31 6 -5 5 31 23 37 23 7 0 -11 5 -20 11 -20 21 0
4 45 -18 48 -20 3 -23 -1 -22 -30z"/>
<path d="M957 503 c-14 -14 -6 -45 13 -50 11 -3 17 -9 14 -14 -3 -5 -10 -7
-15 -4 -5 4 -9 1 -9 -5 0 -6 8 -10 18 -8 12 2 18 15 20 46 3 36 0 42 -16 42
-10 0 -22 -3 -25 -7z m33 -23 c0 -11 -4 -20 -9 -20 -14 0 -23 18 -16 30 10 17
25 11 25 -10z"/>
<path d="M1132 480 c0 -19 2 -27 5 -17 2 9 2 25 0 35 -3 9 -5 1 -5 -18z"/>
<path d="M1161 478 c1 -28 2 -29 7 -10 4 13 12 23 17 23 6 0 13 -10 17 -23 6
-19 7 -18 5 7 -2 23 -7 31 -24 33 -20 3 -23 -1 -22 -30z"/>
<path d="M1390 485 c0 -14 5 -25 10 -25 6 0 10 11 10 25 0 14 -4 25 -10 25 -5
0 -10 -11 -10 -25z"/>
<path d="M1430 495 c-10 -12 -10 -18 0 -30 24 -29 58 -7 44 30 -4 8 -12 15
-19 15 -7 0 -18 -7 -25 -15z m30 -15 c0 -11 -4 -20 -10 -20 -5 0 -10 9 -10 20
0 11 5 20 10 20 6 0 10 -9 10 -20z"/>
<path d="M1578 485 c-3 -14 -2 -25 2 -25 4 0 10 11 12 25 3 14 2 25 -2 25 -4
0 -10 -11 -12 -25z"/>
<path d="M1622 480 c0 -19 2 -27 5 -17 2 9 2 25 0 35 -3 9 -5 1 -5 -18z"/>
<path d="M720 481 c0 -5 7 -15 17 -22 15 -13 15 -12 4 9 -12 23 -21 28 -21 13z"/>
<path d="M727 212 c-9 -2 -17 -8 -17 -13 0 -6 9 -7 20 -4 18 6 20 2 20 -44 0
-42 3 -51 18 -51 14 0 16 8 13 51 -3 49 -2 52 18 46 12 -3 21 -1 21 4 0 5 -3
9 -7 10 -32 3 -72 3 -86 1z"/>
<path d="M1246 199 c-59 -46 -5 -127 68 -100 34 14 31 54 -5 59 -19 3 -22 1
-11 -9 19 -21 14 -39 -12 -39 -37 0 -50 55 -20 84 19 20 29 20 48 0 14 -13 16
-13 16 -1 0 31 -47 35 -84 6z"/>
<path d="M1432 204 c-33 -23 -27 -83 10 -103 38 -21 83 -5 83 29 0 20 -6 26
-30 28 -28 2 -29 1 -11 -12 21 -17 14 -36 -14 -36 -22 0 -36 37 -25 69 7 23
44 28 63 9 9 -9 12 -8 12 4 0 30 -52 37 -88 12z"/>
<path d="M1540 155 c0 -59 2 -65 20 -65 16 0 19 5 16 24 -2 13 -2 27 1 30 10
10 33 -15 33 -35 0 -12 7 -19 20 -19 23 0 24 6 6 39 -11 21 -12 27 0 38 27 28
-5 53 -68 53 -28 0 -28 -1 -28 -65z m68 28 c-2 -10 -11 -19 -20 -21 -14 -3
-17 8 -9 36 1 1 8 2 17 2 9 0 14 -7 12 -17z"/>
<path d="M1685 200 c-34 -37 -10 -110 37 -110 51 0 78 85 36 114 -30 21 -51
20 -73 -4z m60 -45 c0 -33 -4 -41 -21 -43 -16 -2 -23 3 -27 20 -10 39 3 69 27
66 17 -2 21 -10 21 -43z"/>
<path d="M1798 168 c6 -72 47 -101 86 -62 18 17 23 114 6 114 -5 0 -10 -25
-10 -55 0 -52 -1 -55 -25 -55 -24 0 -25 3 -25 55 0 47 -3 55 -19 55 -16 0 -18
-6 -13 -52z"/>
<path d="M1920 155 c0 -59 2 -65 20 -65 16 0 19 5 15 23 -5 19 -1 24 27 32 63
19 41 75 -29 75 l-33 0 0 -65z m68 28 c-5 -26 -38 -29 -38 -4 0 15 6 21 21 21
14 0 19 -5 17 -17z"/>
<path d="M265 155 c0 -31 4 -55 10 -55 6 0 9 17 7 40 -2 22 -2 40 1 40 2 0 16
-18 31 -40 14 -22 30 -40 35 -40 5 0 11 25 13 55 2 35 -1 55 -8 55 -6 0 -9
-13 -6 -30 2 -16 0 -30 -5 -30 -5 0 -17 14 -26 30 -10 17 -26 30 -35 30 -14 0
-17 -10 -17 -55z"/>
<path d="M422 193 c-6 -10 -17 -35 -25 -55 -14 -33 -14 -38 -1 -38 7 0 13 3
13 8 -4 22 3 29 26 24 14 -2 25 -11 25 -18 0 -8 9 -14 20 -14 19 0 19 1 -3 52
-25 57 -41 69 -55 41z m28 -35 c0 -5 -7 -8 -15 -8 -15 0 -20 21 -8 33 7 7 23
-11 23 -25z"/>
<path d="M515 155 c0 -31 4 -55 10 -55 6 0 9 18 8 43 l-3 42 16 -37 c9 -21 20
-38 24 -38 4 0 15 17 23 37 l16 38 -2 -42 c-2 -35 1 -43 14 -43 14 0 18 11 21
55 3 50 1 55 -17 55 -14 0 -25 -11 -34 -32 l-13 -33 -14 33 c-8 18 -21 32 -32
32 -14 0 -17 -9 -17 -55z"/>
<path d="M838 155 c-3 -47 0 -55 15 -55 11 0 17 8 17 25 0 20 5 25 26 25 23 0
26 -3 22 -25 -4 -19 -1 -25 13 -25 16 0 19 8 19 55 0 47 -3 55 -19 55 -14 0
-18 -5 -14 -20 4 -16 0 -20 -21 -20 -19 0 -26 5 -26 20 0 11 -6 20 -14 20 -10
0 -15 -16 -18 -55z"/>
<path d="M990 168 c-22 -48 -25 -68 -10 -68 6 0 9 3 9 8 -4 24 3 30 29 23 15
-5 26 -13 25 -20 -2 -6 6 -11 17 -11 20 0 20 1 4 38 -9 20 -18 45 -21 55 -9
30 -33 19 -53 -25z m40 -10 c0 -5 -7 -8 -15 -8 -17 0 -18 2 -9 25 5 13 8 14
15 3 5 -7 9 -16 9 -20z"/>
<path d="M1095 155 c0 -31 4 -55 10 -55 6 0 9 18 7 43 l-3 42 30 -35 c17 -19
31 -38 31 -42 0 -5 6 -8 13 -8 8 0 13 19 15 55 2 34 -1 55 -8 55 -5 0 -10 -15
-10 -32 l0 -33 -26 33 c-40 50 -59 43 -59 -23z"/>
</g>
</svg>
